<svg width="91" height="89" viewBox="0 0 91 89" fill="none" xmlns="http://www.w3.org/2000/svg">
<path d="M4.5849 3.78375H86.3454V84.7887H4.5849V3.78375Z" fill="url(#paint0_radial)"/>
<path d="M4.5849 3.78375H86.3454V84.7886H4.5849V3.78375ZM0.869324 88.5724H90.0788V0H0.869324V88.5724ZM59.3003 31.5797C59.3003 31.2705 59.4075 31.1249 59.7469 31.1249H65.5882C65.8918 31.1249 66.0348 31.2341 66.0348 31.5797V61.4495C66.0348 61.7587 65.9633 61.9043 65.5882 61.9043H59.8183C59.4432 61.9043 59.336 61.7224 59.336 61.4131V31.5797H59.3003ZM58.8894 22.9753C58.8894 20.5559 60.5686 19.1188 62.6764 19.1188C64.9451 19.1188 66.4635 20.6651 66.4635 22.9753C66.4635 25.4675 64.8736 26.8319 62.605 26.8319C60.4614 26.85 58.8894 25.4857 58.8894 22.9753ZM42.1693 44.0224C41.1333 39.8203 38.6681 30.6702 37.7392 26.2315H37.6678C36.8818 30.652 34.9168 38.1467 33.3627 44.0224H42.1693ZM31.8443 50.1528L28.9148 61.5041C28.8433 61.8133 28.7361 61.8861 28.361 61.8861H22.8948C22.5197 61.8861 22.4482 61.7769 22.5197 61.3221L33.0769 23.703C33.2555 23.0299 33.3806 22.4114 33.452 20.5559C33.452 20.2831 33.5592 20.1739 33.7557 20.1739H41.562C41.8299 20.1739 41.9371 20.2467 42.0086 20.5559L53.8341 61.3949C53.9056 61.7042 53.8341 61.8861 53.5304 61.8861H47.3676C47.0639 61.8861 46.8853 61.8133 46.8138 61.5404L43.7592 50.1528H31.8443Z" fill="#FF7F18"/>
<defs>
<radialGradient id="paint0_radial" cx="0" cy="0" r="1" gradientUnits="userSpaceOnUse" gradientTransform="translate(31.5395 21.961) scale(62.1406 61.2673)">
<stop stop-color="#423325" stop-opacity="0.98"/>
<stop offset="1" stop-color="#1C0A00"/>
</radialGradient>
</defs>
</svg>
