<svg width="90" height="89" viewBox="0 0 90 89" fill="none" xmlns="http://www.w3.org/2000/svg">
<path d="M3.94153 3.78375H85.702V84.7887H3.94153V3.78375Z" fill="url(#paint0_radial)"/>
<path d="M3.94153 3.78375H85.702V84.7886H3.94153V3.78375ZM0.225952 88.5724H89.4355V0H0.225952V88.5724ZM63.3371 42.6945C65.2307 42.6945 65.9095 42.6945 66.0881 42.6217C66.0881 42.3488 66.1596 42.1669 66.1596 41.985C66.1596 39.9476 65.1949 36.1639 61.3365 36.1639C57.7638 36.1639 56.2454 39.3473 55.8703 42.7127H63.3371V42.6945ZM55.7988 47.8789C55.8703 52.9906 58.2461 56.4287 63.9088 56.4287C66.106 56.4287 67.9995 56.1195 69.9644 55.2645C70.2324 55.1554 70.411 55.1917 70.411 55.5374V60.2671C70.411 60.6491 70.3038 60.831 70.0359 61.0311C68.0709 62.0134 65.6058 62.4682 62.569 62.4682C52.762 62.4682 49.0822 55.0826 49.0822 46.8784C49.0822 37.9466 53.6195 30.6338 61.6044 30.6338C69.7144 30.6338 72.5368 37.5646 72.5368 43.2038C72.5368 45.0229 72.4296 46.4964 72.2331 47.2241C72.1616 47.5333 72.0545 47.6424 71.7508 47.7152C71.0005 47.8244 68.8212 47.9881 65.5522 47.9881H55.8167V47.8789H55.7988ZM35.8633 44.0224C34.8272 39.8203 32.2907 30.6702 31.3618 26.2315H31.2903C30.5043 30.652 28.4679 38.1467 26.9495 44.0224H35.8633ZM25.4311 50.1528L22.5015 61.4677C22.4301 61.7769 22.3229 61.8861 21.9478 61.8861H16.4637C16.0886 61.8861 16.0171 61.7769 16.0886 61.3221L26.6458 23.7394C26.8245 23.0663 26.9495 22.5206 27.021 20.6287C27.021 20.3558 27.1281 20.2467 27.3246 20.2467H35.1309C35.3989 20.2467 35.5061 20.3194 35.5775 20.6287L47.3852 61.3949C47.4566 61.7042 47.3852 61.8861 47.0815 61.8861H40.9544C40.6507 61.8861 40.4721 61.7769 40.4006 61.5041L37.346 50.1528H25.4311Z" fill="#D8A1FF"/>
<defs>
<radialGradient id="paint0_radial" cx="0" cy="0" r="1" gradientUnits="userSpaceOnUse" gradientTransform="translate(30.894 21.9449) scale(62.1407 61.2673)">
<stop stop-color="#442F55" stop-opacity="0.98"/>
<stop offset="1" stop-color="#12002C"/>
</radialGradient>
</defs>
</svg>
