<svg width="59" height="89" viewBox="0 0 59 89" fill="none" xmlns="http://www.w3.org/2000/svg">
<g clip-path="url(#clip0)">
<path d="M15.2114 88.9906C23.2499 88.9906 29.7701 82.3509 29.7701 74.1649V59.3392H15.2114C7.1729 59.3392 0.652771 65.9789 0.652771 74.1649C0.652771 82.3509 7.1729 88.9906 15.2114 88.9906Z" fill="#0ACF83"/>
<path d="M0.652771 44.4953C0.652771 36.3093 7.1729 29.6696 15.2114 29.6696H29.7701V59.3392H15.2114C7.1729 59.321 0.652771 52.6813 0.652771 44.4953Z" fill="#A259FF"/>
<path d="M0.652771 14.8257C0.652771 6.63973 7.1729 0 15.2114 0H29.7701V29.6696H15.2114C7.1729 29.6696 0.652771 23.0117 0.652771 14.8257Z" fill="#F24E1E"/>
<path d="M29.7879 -7.62939e-06H44.3465C52.3851 -7.62939e-06 58.9052 6.63972 58.9052 14.8257C58.9052 23.0117 52.3851 29.6514 44.3465 29.6514H29.7879V-7.62939e-06Z" fill="#FF7262"/>
<path d="M58.9053 44.4953C58.9053 52.6813 52.3851 59.321 44.3466 59.321C36.3081 59.321 29.788 52.6813 29.788 44.4953C29.788 36.3093 36.3081 29.6696 44.3466 29.6696C52.3851 29.6696 58.9053 36.3093 58.9053 44.4953Z" fill="#1ABCFE"/>
</g>
<defs>
<clipPath id="clip0">
<rect width="58.2524" height="88.9906" fill="white" transform="translate(0.652771)"/>
</clipPath>
</defs>
</svg>
