<svg width="41" height="41" viewBox="0 0 41 41" fill="none" xmlns="http://www.w3.org/2000/svg">
<g clip-path="url(#clip0)">
<path d="M34.2354 0.216797H5.87564C2.63578 0.216797 0 2.84528 0 6.07617V34.3574C0 37.5883 2.63578 40.2168 5.87564 40.2168H34.2354C37.4753 40.2168 40.111 37.5883 40.111 34.3574V6.07617C40.111 2.84528 37.4753 0.216797 34.2354 0.216797ZM37.7608 34.3574C37.7608 36.2959 36.1793 37.873 34.2354 37.873H5.87564C3.93178 37.873 2.35026 36.2959 2.35026 34.3574V6.07617C2.35026 4.1377 3.93178 2.56055 5.87564 2.56055H34.2354C36.1793 2.56055 37.7608 4.1377 37.7608 6.07617V34.3574Z" fill="black" stroke="black" stroke-width="0.5"/>
<path d="M18.8804 16.7012C18.8804 14.1163 16.7719 12.0137 14.1799 12.0137H7.12909V28.4199H14.1799C16.7719 28.4199 18.8804 26.3173 18.8804 23.7324C18.8804 22.3335 18.2619 21.0765 17.2838 20.2168C18.2619 19.3571 18.8804 18.1001 18.8804 16.7012ZM16.5301 23.7324C16.5301 25.0248 15.4759 26.0762 14.1799 26.0762H9.47935V21.3887H14.1799C15.4759 21.3887 16.5301 22.44 16.5301 23.7324ZM9.47935 19.0449V14.3574H14.1799C15.4759 14.3574 16.5301 15.4088 16.5301 16.7012C16.5301 17.9936 15.4759 19.0449 14.1799 19.0449H9.47935Z" fill="black" stroke="black" stroke-width="0.5"/>
<path d="M27.1063 16.7012C23.8664 16.7012 21.2307 19.3297 21.2307 22.5605C21.2307 25.7914 23.8664 28.4199 27.1063 28.4199C29.1973 28.4199 31.1473 27.2978 32.1951 25.4911L30.1607 24.3174C29.5315 25.4023 28.361 26.0762 27.1063 26.0762C25.574 26.0762 24.2673 25.0966 23.7823 23.7324H32.9819V22.5605C32.9819 19.3297 30.3462 16.7012 27.1063 16.7012ZM23.7823 21.3887C24.2673 20.0245 25.574 19.0449 27.1063 19.0449C28.6385 19.0449 29.9453 20.0245 30.4303 21.3887H23.7823Z" fill="black" stroke="black" stroke-width="0.5"/>
<path d="M22.4058 12.0137H31.8068V14.3574H22.4058V12.0137Z" fill="black" stroke="black" stroke-width="0.5"/>
</g>
<defs>
<clipPath id="clip0">
<rect width="40.111" height="40" fill="white" transform="translate(0 0.216797)"/>
</clipPath>
</defs>
</svg>
